<?xml version="1.0" encoding="UTF-8" standalone="no"?>
<!-- Generator: Adobe Illustrator 14.0.0, SVG Export Plug-In . SVG Version: 6.00 Build 43363)  -->

<svg
   xmlns:dc="http://purl.org/dc/elements/1.1/"
   xmlns:cc="http://creativecommons.org/ns#"
   xmlns:rdf="http://www.w3.org/1999/02/22-rdf-syntax-ns#"
   xmlns:svg="http://www.w3.org/2000/svg"
   xmlns="http://www.w3.org/2000/svg"
   xmlns:sodipodi="http://sodipodi.sourceforge.net/DTD/sodipodi-0.dtd"
   xmlns:inkscape="http://www.inkscape.org/namespaces/inkscape"
   version="1.0"
   id="Layer_1"
   x="0px"
   y="0px"
   width="100"
   height="100"
   viewBox="0 0 99.999998 100"
   enable-background="new 0 0 37.207 100"
   xml:space="preserve"
   inkscape:version="0.48.2 r9819"
   sodipodi:docname="cat_idiotis.svg"><metadata
   id="metadata11"><rdf:RDF><cc:Work
       rdf:about=""><dc:format>image/svg+xml</dc:format><dc:type
         rdf:resource="http://purl.org/dc/dcmitype/StillImage" /></cc:Work></rdf:RDF></metadata><defs
   id="defs9" /><sodipodi:namedview
   pagecolor="#ffffff"
   bordercolor="#666666"
   borderopacity="1"
   objecttolerance="10"
   gridtolerance="10"
   guidetolerance="10"
   inkscape:pageopacity="0"
   inkscape:pageshadow="2"
   inkscape:window-width="1082"
   inkscape:window-height="678"
   id="namedview7"
   showgrid="false"
   inkscape:zoom="2.36"
   inkscape:cx="18.6035"
   inkscape:cy="50"
   inkscape:window-x="0"
   inkscape:window-y="27"
   inkscape:window-maximized="0"
   inkscape:current-layer="Layer_1" />
<circle
   cx="18.118"
   cy="8.1590004"
   r="8.1590004"
   id="circle3"
   sodipodi:cx="18.118"
   sodipodi:cy="8.1590004"
   sodipodi:rx="8.1590004"
   sodipodi:ry="8.1590004"
   transform="translate(32,0)" />
<path
   d="m 40.472,95.426 c 0,2.524 2.05,4.574 4.574,4.574 2.529,0 4.576,-2.05 4.576,-4.574 l 0.004,-38.374 h 2.037 L 51.65,95.426 c 0,2.524 2.048,4.574 4.574,4.574 2.526,0 4.573,-2.05 4.573,-4.574 l 0.02,-66.158 h 2.006 v 24.38 c 0,4.905 6.398,4.905 6.384,0 v -24.9 C 69.207,23.33 66.023,18.02 59.684,18.02 L 41.396,18.012 C 35.619,18.012 32,22.722 32,28.599 v 25.05 c 0,4.869 6.433,4.869 6.433,0 v -24.38 h 2.048 l -0.009,66.157 z"
   id="path5"
   inkscape:connector-curvature="0" />
</svg>