<?xml version="1.0" encoding="utf-8"?>
<!-- Generator: Adobe Illustrator 14.0.0, SVG Export Plug-In . SVG Version: 6.00 Build 43363)  -->
<!DOCTYPE svg PUBLIC "-//W3C//DTD SVG 1.0//EN" "http://www.w3.org/TR/2001/REC-SVG-20010904/DTD/svg10.dtd">
<svg version="1.0" id="Layer_1" xmlns="http://www.w3.org/2000/svg" xmlns:xlink="http://www.w3.org/1999/xlink" x="0px" y="0px"
	 width="36.439px" height="100.277px" viewBox="0 0 36.439 100.277" enable-background="new 0 0 36.439 100.277"
	 xml:space="preserve">
<path d="M26.47,95.631c-0.021,2.55,2.024,4.625,4.568,4.646c2.548,0.021,4.624-2.021,4.645-4.567l0.757-90.403
	c0.037-4.47-2.869-4.971-4.903-4.987c-2.042-0.017-5.817,5.713-6.673,11C24,16.602,18.891,43.844,26.988,49.207L26.47,95.631
	L26.47,95.631L26.47,95.631z"/>
<path d="M4.888,95.452L5.506,37.22C2.192,37.193,0.562,33.246,0,30.39L2.006,0.278L4.72,24.584L7.263,0.32l2.711,24.308
	l3.124-24.259l2.131,24.303l3.12-24.259l1.497,30.143c-0.602,2.846-2.064,6.766-5.386,6.739l-0.353,58.233
	c-0.021,2.548-2.106,4.59-4.649,4.568C6.914,100.075,4.868,98,4.888,95.452L4.888,95.452L4.888,95.452z"/>
</svg>
